<svg id="SvgjsSvg1001" width="288" height="288" xmlns="http://www.w3.org/2000/svg" version="1.1" xmlns:xlink="http://www.w3.org/1999/xlink" xmlns:svgjs="http://svgjs.com/svgjs"><defs id="SvgjsDefs1002"></defs><g id="SvgjsG1008"><svg xmlns="http://www.w3.org/2000/svg" viewBox="0 0 50 50" width="288" height="288"><path d="M38.915,48c-5.138,0-7.708-1.832-9.483-6.761L25.28,29.99L18.046,48H7.465l13.542-30.652l-0.772-2.016 c-1.741-4.383-2.512-4.807-5.318-4.809c-0.163,0.066-0.379,0.123-0.754,0.185L13,10.899V2.736l1.214-0.321 C15.104,2.174,15.749,2,16.939,2c6.899,0,9.326,3.227,12.703,12.316l8.484,22.561c0.843,2.284,1.5,2.628,3.321,2.628 c0.38,0,1.107-0.153,1.346-0.204L44,39.046v8.206l-0.698,0.221C42.306,47.788,40.543,48,38.915,48z" fill="#306b52" class="color000 svgShape"></path></svg></g></svg>